HIERARCHY
ROOT Hips
{
	OFFSET -0.001795 -0.223333 0.028219
	CHANNELS 6 Xposition Yposition Zposition Zrotation Yrotation Xrotation 
	JOINT LeftUpLeg
	{
		OFFSET 0.069520 -0.091406 -0.006815
		CHANNELS 3 Zrotation Yrotation Xrotation
		JOINT LeftLeg
		{
			OFFSET 0.034277 -0.375199 -0.004496
			CHANNELS 3 Zrotation Yrotation Xrotation
			JOINT LeftFoot
			{
				OFFSET -0.013596 -0.397961 -0.043693
				CHANNELS 3 Zrotation Yrotation Xrotation
				JOINT LeftToe
				{
					OFFSET 0.026358 -0.055791 0.119288
					CHANNELS 3 Zrotation Yrotation Xrotation
					End Site
					{
						OFFSET 0.000000 0.000000 0.000000
					}
				}
			}
		}
	}
	JOINT RightUpLeg
	{
		OFFSET -0.067670 -0.090522 -0.004320
		CHANNELS 3 Zrotation Yrotation Xrotation
		JOINT RightLeg
		{
			OFFSET -0.038290 -0.382569 -0.008850
			CHANNELS 3 Zrotation Yrotation Xrotation
			JOINT RightFoot
			{
				OFFSET 0.015774 -0.398415 -0.042312
				CHANNELS 3 Zrotation Yrotation Xrotation
				JOINT RightToe
				{
					OFFSET -0.025372 -0.048144 0.123348
					CHANNELS 3 Zrotation Yrotation Xrotation
					End Site
					{
						OFFSET 0.000000 0.000000 0.000000
					}
				}
			}
		}
	}
	JOINT Spine
	{
		OFFSET -0.002533 0.108963 -0.026696
		CHANNELS 3 Zrotation Yrotation Xrotation
		JOINT Spine1
		{
			OFFSET 0.005487 0.135180 0.001092
			CHANNELS 3 Zrotation Yrotation Xrotation
			JOINT Spine2
			{
				OFFSET 0.001457 0.052922 0.025425
				CHANNELS 3 Zrotation Yrotation Xrotation
				JOINT Neck
				{
					OFFSET -0.002778 0.213870 -0.042857
					CHANNELS 3 Zrotation Yrotation Xrotation
					JOINT Head
					{
						OFFSET 0.005152 0.064970 0.051349
						CHANNELS 3 Zrotation Yrotation Xrotation
						End Site
						{
							OFFSET 0.000000 0.000000 0.000000
						}
					}
				}
				JOINT LeftShoulder
				{
					OFFSET 0.078845 0.121749 -0.034090
					CHANNELS 3 Zrotation Yrotation Xrotation
					JOINT LeftArm
					{
						OFFSET 0.090977 0.030469 -0.008868
						CHANNELS 3 Zrotation Yrotation Xrotation
						JOINT LeftForeArm
						{
							OFFSET 0.259612 -0.012772 -0.027456
							CHANNELS 3 Zrotation Yrotation Xrotation
							JOINT LeftHand
							{
								OFFSET 0.249234 0.008986 -0.001171
								CHANNELS 3 Zrotation Yrotation Xrotation
								End Site
								{
									OFFSET 0.000000 0.000000 0.000000
								}
							}
						}
					}
				}
				JOINT RightShoulder
				{
					OFFSET -0.081759 0.118833 -0.038615
					CHANNELS 3 Zrotation Yrotation Xrotation
					JOINT RightArm
					{
						OFFSET -0.096012 0.032551 -0.009143
						CHANNELS 3 Zrotation Yrotation Xrotation
						JOINT RightForeArm
						{
							OFFSET -0.253742 -0.013329 -0.021401
							CHANNELS 3 Zrotation Yrotation Xrotation
							JOINT RightHand
							{
								OFFSET -0.255298 0.007772 -0.005559
								CHANNELS 3 Zrotation Yrotation Xrotation
								End Site
								{
									OFFSET 0.000000 0.000000 0.000000
								}
							}
						}
					}
				}
			}
		}
	}
}
MOTION
Frames: 13
Frame Time: 0.050000
-0.060082 0.968928 -0.051503 5.834386 -8.508667 18.051941 -2.203331 -2.013312 -22.077996 3.155252 -0.181883 -2.918753 -0.592845 5.077461 21.787227 0.000000 0.000000 0.000000 -6.122291 1.939849 -24.017764 -8.706785 0.212029 -5.030148 12.877706 8.893115 26.696964 0.000000 0.000000 0.000000 4.206692 -1.603680 21.187473 6.078605 -2.623218 0.130911 -15.034425 12.028327 -1.092635 30.704205 -13.174379 -24.090467 0.000000 0.000000 0.000000 23.359345 -44.390984 9.256897 16.933273 -64.113862 -17.107838 24.233952 -9.281134 -1.475826 0.000000 0.000000 0.000000 -16.573970 33.600108 8.762110 6.540654 33.295957 0.299840 -11.553215 -4.380564 0.694192 0.000000 0.000000 0.000000 
-0.061545 0.969049 -0.054970 6.263388 -7.417255 18.204735 -2.329598 -2.061817 -21.940031 3.314076 -0.123835 -3.927237 -2.079867 3.307767 22.123712 0.000000 0.000000 0.000000 -6.210761 1.860848 -23.917324 -9.298992 0.198155 -5.485474 12.497120 8.428169 26.861860 0.000000 0.000000 0.000000 4.337310 -1.727694 21.882763 7.039404 -3.171200 1.661954 -15.666595 11.602306 -2.301676 31.229611 -13.674474 -23.302877 0.000000 0.000000 0.000000 27.488886 -46.780771 8.436729 29.434155 -62.105553 -23.826502 20.044058 -0.860655 0.076668 0.000000 0.000000 0.000000 -19.577533 35.672632 8.497976 -0.041810 31.443700 -1.006879 -7.122244 -8.306244 0.555079 0.000000 0.000000 0.000000 
-0.062873 0.969060 -0.056789 6.378669 -6.949415 18.167153 -2.108790 -2.064727 -22.129176 3.046088 -0.122876 -3.581867 -2.519125 2.676633 21.746247 0.000000 0.000000 0.000000 -6.019620 1.850873 -23.828840 -9.111951 0.267875 -4.831136 10.842262 7.109248 24.744701 0.000000 0.000000 0.000000 4.754607 -1.941452 23.284877 6.728570 -2.994877 1.100662 -14.858998 11.447239 -2.043390 31.021654 -13.862460 -22.616963 0.000000 0.000000 0.000000 28.647190 -47.655497 8.146905 34.576456 -61.445930 -26.464190 19.462599 0.836065 0.321988 0.000000 0.000000 0.000000 -20.499788 35.649486 8.212107 -2.928462 30.829385 -1.545912 -6.610747 -9.058329 0.530812 0.000000 0.000000 0.000000 
-0.064258 0.969069 -0.057675 6.806602 -6.340572 18.672991 -2.157897 -2.143362 -22.690741 2.551763 -0.055187 -4.012351 -2.890998 2.503979 22.483783 0.000000 0.000000 0.000000 -6.202557 1.822481 -24.217882 -8.983615 0.269981 -4.765184 9.423833 5.334719 24.047211 0.000000 0.000000 0.000000 4.636485 -1.943159 23.155071 6.742541 -3.027679 1.380301 -13.990048 10.731557 -1.562170 28.930515 -12.878330 -22.023887 0.000000 0.000000 0.000000 29.276076 -47.869750 7.927352 36.069154 -60.346587 -26.457893 21.034545 -0.139504 0.195158 0.000000 0.000000 0.000000 -21.341474 35.551931 7.920898 -2.985902 30.222825 -1.569355 -10.168304 -7.559369 0.811327 0.000000 0.000000 0.000000 
-0.065645 0.969698 -0.057267 6.782438 -5.856510 18.589445 -1.835758 -2.070109 -22.168657 2.488028 -0.039626 -4.170410 -3.652248 1.222682 21.544500 0.000000 0.000000 0.000000 -5.866347 1.862372 -24.565206 -9.164104 0.422957 -3.596772 8.792834 4.701666 23.465586 0.000000 0.000000 0.000000 4.774963 -2.006820 23.169927 7.229084 -3.233145 1.083348 -13.989746 10.178719 -1.738251 27.308440 -12.511322 -20.534377 0.000000 0.000000 0.000000 26.114050 -47.139601 8.859109 32.628134 -61.846276 -25.047966 24.120195 -5.392887 -0.706983 0.000000 0.000000 0.000000 -19.047298 34.466824 8.365520 -0.457963 30.550409 -1.186129 -18.520821 -3.070255 1.068881 0.000000 0.000000 0.000000 
-0.067166 0.969872 -0.055612 7.032797 -5.245392 18.533029 -1.692342 -2.073981 -22.163229 2.101462 -0.023944 -3.908488 -4.199234 0.505065 21.386756 0.000000 0.000000 0.000000 -6.036631 1.801572 -24.567540 -9.047767 0.507751 -2.856836 8.110062 4.138536 22.645683 0.000000 0.000000 0.000000 4.562390 -1.927447 22.361420 7.350076 -3.282555 0.856115 -13.315815 10.000317 -1.027501 25.743404 -12.043120 -19.481027 0.000000 0.000000 0.000000 23.596196 -45.168586 9.354184 28.697961 -64.595381 -24.127683 27.856687 -11.100086 -2.076838 0.000000 0.000000 0.000000 -16.179216 32.097743 8.501251 4.037172 32.023700 -0.379724 -29.668218 2.586430 0.681975 0.000000 0.000000 0.000000 
-0.068772 0.969992 -0.052700 6.848151 -4.569979 17.883125 -1.219315 -1.953241 -21.243171 2.133148 -0.014978 -4.094288 -5.127764 -0.672344 21.496207 0.000000 0.000000 0.000000 -5.425189 1.774529 -23.555462 -9.547752 0.549436 -2.883493 8.041862 4.120696 22.643446 0.000000 0.000000 0.000000 4.842246 -1.957890 21.408529 7.470527 -3.410710 1.473659 -13.601302 9.134457 -1.766650 24.550322 -12.350327 -16.795391 0.000000 0.000000 0.000000 18.090682 -44.616710 10.778138 17.676503 -65.406871 -17.288524 30.717127 -19.131782 -4.325900 0.000000 0.000000 0.000000 -11.434076 30.658887 9.420141 9.865159 31.611376 0.674795 -41.237820 11.526388 -1.811149 0.000000 0.000000 0.000000 
-0.070409 0.969553 -0.049830 7.077936 -3.969249 17.680698 -1.394868 -1.937389 -20.552775 2.361623 -0.028597 -4.112216 -5.714119 -1.870476 20.291058 0.000000 0.000000 0.000000 -5.585712 1.716309 -23.538762 -9.324581 0.656002 -1.933057 7.289365 3.376042 21.898415 0.000000 0.000000 0.000000 4.644279 -1.846682 20.266342 7.771425 -3.513922 0.846767 -13.351456 8.750590 -0.345061 23.545797 -11.495787 -17.677075 0.000000 0.000000 0.000000 15.594154 -42.985020 11.039118 10.353267 -66.972887 -13.245527 31.818061 -24.503953 -5.937710 0.000000 0.000000 0.000000 -9.251393 28.404241 9.175421 14.974229 30.964279 1.558666 -50.634826 20.335638 -5.907389 0.000000 0.000000 0.000000 
-0.072226 0.969101 -0.048359 7.076219 -3.372091 17.485254 -1.391628 -1.938657 -20.357853 2.212082 -0.006223 -4.288755 -5.533059 -1.339328 20.690813 0.000000 0.000000 0.000000 -5.632472 1.663933 -23.343250 -9.332893 0.702488 -1.610658 7.522968 3.887853 21.906284 0.000000 0.000000 0.000000 4.691449 -1.791773 19.070801 7.763668 -3.510891 0.734952 -13.367220 8.138402 -0.479947 23.722900 -11.806019 -17.171958 0.000000 0.000000 0.000000 12.234459 -42.931591 11.871612 2.312501 -66.712905 -7.982874 32.041633 -28.225195 -6.999048 0.000000 0.000000 0.000000 -6.374367 28.245893 9.880285 16.524020 30.616216 1.738114 -52.759885 24.105119 -7.998177 0.000000 0.000000 0.000000 
-0.074358 0.968856 -0.048724 6.997154 -3.005982 17.021049 -1.203029 -1.903822 -20.110986 2.328185 -0.043484 -3.753787 -5.745250 -1.779114 20.212758 0.000000 0.000000 0.000000 -5.206463 1.678067 -23.010325 -9.431902 0.783737 -1.059913 7.015430 3.415573 21.243548 0.000000 0.000000 0.000000 4.960570 -1.882512 19.369052 7.156864 -3.133268 -0.509613 -12.944992 7.834458 0.255113 23.893714 -11.797203 -17.659402 0.000000 0.000000 0.000000 10.401567 -42.292356 12.148264 -1.513423 -67.182687 -5.582206 31.782493 -29.438985 -7.250579 0.000000 0.000000 0.000000 -5.849270 28.947533 10.237496 15.882463 31.912803 1.716523 -48.912885 20.428882 -5.904802 0.000000 0.000000 0.000000 
-0.076875 0.968452 -0.050384 7.218869 -2.295658 17.131150 -1.292595 -1.978102 -20.545755 2.142575 -0.068197 -2.996334 -5.599968 -1.863972 19.162436 0.000000 0.000000 0.000000 -5.550012 1.608289 -23.266166 -8.842889 0.781104 -0.688593 6.354212 2.604737 20.956363 0.000000 0.000000 0.000000 4.842203 -1.837495 18.806550 7.232682 -3.204536 -0.198696 -13.576318 8.231421 0.074845 25.054577 -11.982745 -18.907562 0.000000 0.000000 0.000000 9.751509 -43.007885 12.470494 -0.803270 -67.594106 -6.253874 31.199992 -27.902421 -6.699841 0.000000 0.000000 0.000000 -6.127731 29.666168 10.494678 13.284439 33.697809 1.397930 -42.089830 12.908456 -2.382962 0.000000 0.000000 0.000000 
-0.079637 0.968254 -0.052347 6.830979 -1.366930 16.709045 -0.664092 -1.919906 -20.508122 2.064640 -0.107101 -2.088691 -5.770951 -2.474142 17.997156 0.000000 0.000000 0.000000 -5.392151 1.558240 -22.846491 -8.442333 0.768114 -0.554193 6.733868 3.311325 21.196355 0.000000 0.000000 0.000000 5.631067 -2.114381 19.531804 6.669629 -2.906217 -0.827497 -13.885797 8.779141 -0.127138 26.797359 -13.198821 -18.522739 0.000000 0.000000 0.000000 8.083713 -43.273948 12.910262 -0.800012 -68.068719 -6.449118 30.432827 -28.252456 -6.610862 0.000000 0.000000 0.000000 -6.091230 30.741381 10.984794 10.028721 34.901262 0.809990 -33.091227 5.905834 -0.092261 0.000000 0.000000 0.000000 
-0.082437 0.967430 -0.053754 6.825415 -1.035492 16.734670 -0.449222 -1.935767 -20.874455 2.244816 -0.157525 -1.422624 -6.068183 -3.157499 17.375979 0.000000 0.000000 0.000000 -5.354366 1.541958 -22.742551 -8.104207 0.691984 -0.972794 6.465817 2.845804 21.378063 0.000000 0.000000 0.000000 5.616544 -2.121679 19.488205 6.514240 -2.885150 -0.340308 -14.368847 9.706821 -0.339644 27.759063 -13.226550 -19.777972 0.000000 0.000000 0.000000 7.566304 -43.395529 12.997051 -1.314990 -68.030312 -6.419768 31.782439 -28.919763 -7.207021 0.000000 0.000000 0.000000 -7.863532 31.582270 10.821102 7.796606 36.078741 0.497374 -25.070452 0.748200 0.842182 0.000000 0.000000 0.000000 
